<?xml version="1.0" standalone="no"?>
<!DOCTYPE svg PUBLIC "-//W3C//DTD SVG 20010904//EN"
 "http://www.w3.org/TR/2001/REC-SVG-20010904/DTD/svg10.dtd">
<svg version="1.0" xmlns="http://www.w3.org/2000/svg"
 width="312.000000pt" height="312.000000pt" viewBox="0 0 312.000000 312.000000"
 preserveAspectRatio="xMidYMid meet">
<metadata>
Created by potrace 1.14, written by Peter Selinger 2001-2017
</metadata>
<g transform="translate(0.000000,312.000000) scale(0.100000,-0.100000)"
fill="#000000" stroke="none">
<path d="M2116 2975 c-92 -37 -161 -117 -184 -212 -13 -53 -7 -157 12 -208 29
-77 116 -203 208 -298 109 -112 243 -224 279 -232 34 -8 84 2 102 18 7 7 39
34 72 61 139 113 305 304 353 406 64 136 48 285 -41 386 -113 129 -295 136
-419 17 l-37 -36 -51 46 c-87 78 -188 96 -294 52z m161 -106 c40 -15 88 -64
109 -112 25 -59 43 -77 74 -77 32 0 41 10 78 81 15 29 44 67 65 83 33 26 47
31 96 31 48 0 64 -5 94 -27 76 -58 103 -153 72 -248 -33 -98 -183 -277 -352
-418 l-52 -43 -68 57 c-166 139 -309 312 -340 412 -48 159 84 314 224 261z"/>
<path d="M1275 2066 c-143 -46 -245 -116 -322 -219 -87 -119 -128 -234 -132
-376 -1 -41 -4 -78 -7 -82 -5 -9 -95 -3 -159 12 -109 25 -212 83 -310 173 -55
52 -79 61 -128 52 -71 -14 -102 -67 -93 -157 35 -323 178 -585 409 -747 l79
-55 -74 -71 c-41 -39 -127 -120 -191 -179 -142 -133 -161 -176 -109 -247 37
-50 39 -50 492 -50 408 1 429 2 530 24 102 23 128 32 235 81 76 35 192 121
267 198 127 130 217 297 253 467 22 111 23 118 24 200 1 84 -9 71 111 138 159
88 203 118 219 152 10 19 17 42 16 50 -1 8 -3 23 -3 32 -3 33 -53 76 -114 101
-35 14 -88 36 -118 49 -30 14 -74 32 -96 42 -36 16 -47 28 -84 101 -72 143
-206 257 -360 306 -98 32 -244 34 -335 5z m312 -124 c123 -47 216 -126 272
-232 54 -101 59 -140 60 -425 0 -243 -4 -298 -33 -420 -12 -52 -68 -170 -113
-237 -131 -197 -321 -322 -563 -372 -60 -12 -154 -15 -475 -15 l-400 -1 100
93 c164 151 299 290 317 326 23 49 10 69 -84 121 -236 130 -382 369 -423 693
-2 15 -2 27 1 27 3 0 25 -20 50 -43 90 -87 259 -168 380 -183 142 -17 228 -9
251 22 9 12 13 52 13 118 0 163 33 265 119 374 63 80 186 153 296 175 49 10
183 -2 232 -21z m648 -496 l30 -12 -96 -57 c-142 -83 -129 -87 -129 42 l0 110
83 -35 c45 -20 95 -41 112 -48z"/>
<path d="M1469 1651 c-20 -20 -29 -39 -29 -61 0 -43 47 -90 90 -90 43 0 90 47
90 90 0 22 -9 41 -29 61 -20 20 -39 29 -61 29 -22 0 -41 -9 -61 -29z"/>
</g>
</svg>
